<svg xmlns="http://www.w3.org/2000/svg" xmlns:xlink="http://www.w3.org/1999/xlink" width="512" height="512" viewBox="0 0 512 512">
  <defs>
    <clipPath id="clip-tiktok_downloader">
      <rect width="512" height="512"/>
    </clipPath>
  </defs>
  <g id="tiktok_downloader" data-name="tiktok downloader" clip-path="url(#clip-tiktok_downloader)">
    <rect width="512" height="512" fill="#fff"/>
    <g id="world" transform="translate(110.238 204.238)">
      <g id="Group_1" data-name="Group 1" transform="translate(1 1)">
        <path id="Path_2" data-name="Path 2" d="M52.762,1a51.762,51.762,0,1,0,51.762,51.762A51.822,51.822,0,0,0,52.762,1Zm0,100.185A48.2,48.2,0,0,1,21.807,89.966l3.269-4.9c1.322-.437,3.458-1.334,4.241-2.743,2.293-4.126-3.376-6.726-4.241-8.354-.073-.99-5.819-3.842-6.365-5.21-.66-1.646-3.586-2.725-4.523-5.045-1.12-1.917,2.574-4.892,2.574-7.458,0-3.623.921-7.182,1.949-7.294,3.792-.655,5.505-3.536,6.365-4.793a14.563,14.563,0,0,0,6.065-5.21c1.286-2.249.842-6.4,0-8.961.22-1.13.812-4.58,0-6.877-.822-2.328-3.246-4.09-4.153-4.793-.528-1.2,1.888-3.935-.262-6.356A48.087,48.087,0,0,1,46,4.822a4.8,4.8,0,0,0,0,4.261c.589,1.618,2.385,2.144,4.34,2.883-.25,1.91-.4,3.845,1.659,5.488,2.012,1.61,3.159,2.2,4.827,1.735.212-.058,2.946-.8,3.168-.867.255,1.309,0,1.847.377,4.793a14.1,14.1,0,0,0,.98,4.068c.532.817,3.293,3.2,7.9,3.846a6.047,6.047,0,0,0,.778,0c4.178,0,8.249-1.554,9.862-3.278a87.249,87.249,0,0,0,11.85-3.683,48.393,48.393,0,0,1-38.977,77.116Z" transform="translate(-1 -1)" fill="#fe2c55"/>
      </g>
    </g>
    <g id="world-2" data-name="world" transform="translate(108.238 202.238)">
      <g id="Group_1-2" data-name="Group 1" transform="translate(1 1)">
        <path id="Path_2-2" data-name="Path 2" d="M52.762,1a51.762,51.762,0,1,0,51.762,51.762A51.822,51.822,0,0,0,52.762,1Zm0,100.185A48.2,48.2,0,0,1,21.807,89.966l3.269-4.9c1.322-.437,3.458-1.334,4.241-2.743,2.293-4.126-3.376-6.726-4.241-8.354-.073-.99-5.819-3.842-6.365-5.21-.66-1.646-3.586-2.725-4.523-5.045-1.12-1.917,2.574-4.892,2.574-7.458,0-3.623.921-7.182,1.949-7.294,3.792-.655,5.505-3.536,6.365-4.793a14.563,14.563,0,0,0,6.065-5.21c1.286-2.249.842-6.4,0-8.961.22-1.13.812-4.58,0-6.877-.822-2.328-3.246-4.09-4.153-4.793-.528-1.2,1.888-3.935-.262-6.356A48.087,48.087,0,0,1,46,4.822a4.8,4.8,0,0,0,0,4.261c.589,1.618,2.385,2.144,4.34,2.883-.25,1.91-.4,3.845,1.659,5.488,2.012,1.61,3.159,2.2,4.827,1.735.212-.058,2.946-.8,3.168-.867.255,1.309,0,1.847.377,4.793a14.1,14.1,0,0,0,.98,4.068c.532.817,3.293,3.2,7.9,3.846a6.047,6.047,0,0,0,.778,0c4.178,0,8.249-1.554,9.862-3.278a87.249,87.249,0,0,0,11.85-3.683,48.393,48.393,0,0,1-38.977,77.116Z" transform="translate(-1 -1)" fill="#25f4ee"/>
      </g>
    </g>
    <g id="world-3" data-name="world" transform="translate(109.238 203.238)">
      <g id="Group_1-3" data-name="Group 1" transform="translate(1 1)">
        <path id="Path_2-3" data-name="Path 2" d="M52.762,1a51.762,51.762,0,1,0,51.762,51.762A51.822,51.822,0,0,0,52.762,1Zm0,100.185A48.2,48.2,0,0,1,21.807,89.966l3.269-4.9c1.322-.437,3.458-1.334,4.241-2.743,2.293-4.126-3.376-6.726-4.241-8.354-.073-.99-5.819-3.842-6.365-5.21-.66-1.646-3.586-2.725-4.523-5.045-1.12-1.917,2.574-4.892,2.574-7.458,0-3.623.921-7.182,1.949-7.294,3.792-.655,5.505-3.536,6.365-4.793a14.563,14.563,0,0,0,6.065-5.21c1.286-2.249.842-6.4,0-8.961.22-1.13.812-4.58,0-6.877-.822-2.328-3.246-4.09-4.153-4.793-.528-1.2,1.888-3.935-.262-6.356A48.087,48.087,0,0,1,46,4.822a4.8,4.8,0,0,0,0,4.261c.589,1.618,2.385,2.144,4.34,2.883-.25,1.91-.4,3.845,1.659,5.488,2.012,1.61,3.159,2.2,4.827,1.735.212-.058,2.946-.8,3.168-.867.255,1.309,0,1.847.377,4.793a14.1,14.1,0,0,0,.98,4.068c.532.817,3.293,3.2,7.9,3.846a6.047,6.047,0,0,0,.778,0c4.178,0,8.249-1.554,9.862-3.278a87.249,87.249,0,0,0,11.85-3.683,48.393,48.393,0,0,1-38.977,77.116Z" transform="translate(-1 -1)"/>
      </g>
    </g>
    <g id="页面1" transform="translate(141.149 232.23)">
      <g id="编组-2" transform="translate(0.979)">
        <path id="路径" d="M16.147,12.99V11.165A13.464,13.464,0,0,0,14.231,11a14.2,14.2,0,0,0-8.14,25.857A14.185,14.185,0,0,1,16.147,12.99Z" transform="translate(0 5.46)" fill="#25f4ee"/>
        <path id="路径-2" data-name="路径" d="M12.758,39.129a6.494,6.494,0,0,0,6.479-6.21V1.96h5.656A10.6,10.6,0,0,1,24.729,0H16.993V30.929a6.494,6.494,0,0,1-6.479,6.255,6.583,6.583,0,0,1-2.993-.748A6.494,6.494,0,0,0,12.758,39.129Z" transform="translate(3.733)" fill="#25f4ee"/>
        <path id="路径-3" data-name="路径" d="M28.131,9.486V7.766A10.564,10.564,0,0,1,22.281,6a10.728,10.728,0,0,0,5.851,3.486Z" transform="translate(11.059 2.978)" fill="#25f4ee"/>
        <path id="路径-4" data-name="路径" d="M23.844,8.333A10.654,10.654,0,0,1,21.2,1.3H19.131a10.713,10.713,0,0,0,4.713,7.033Z" transform="translate(9.495 0.645)" fill="#fe2c55"/>
        <path id="路径-5" data-name="路径" d="M11.654,18.081a6.494,6.494,0,0,0-2.993,12.24,6.479,6.479,0,0,1,5.252-10.28,6.826,6.826,0,0,1,1.915.3V12.47a13.589,13.589,0,0,0-1.915-.15h-.344v5.985A6.661,6.661,0,0,0,11.654,18.081Z" transform="translate(2.577 6.115)" fill="#fe2c55"/>
        <path id="路径-6" data-name="路径" d="M37.17,8.33v5.985a18.36,18.36,0,0,1-10.729-3.486V26.555a14.23,14.23,0,0,1-14.23,14.2,14.08,14.08,0,0,1-8.14-2.574,14.2,14.2,0,0,0,24.6-9.666V12.834a18.389,18.389,0,0,0,10.744,3.442V8.569A10.966,10.966,0,0,1,37.17,8.33Z" transform="translate(2.02 4.134)" fill="#fe2c55"/>
        <path id="路径-7" data-name="路径" d="M27.736,30.045V14.318A18.359,18.359,0,0,0,38.48,17.76V11.774a10.728,10.728,0,0,1-5.866-3.442A10.713,10.713,0,0,1,27.9,1.3H22.245V32.274A6.494,6.494,0,0,1,10.5,35.82a6.494,6.494,0,0,1,2.993-12.24,6.659,6.659,0,0,1,1.915.3V17.894A14.185,14.185,0,0,0,5.351,41.836a14.081,14.081,0,0,0,8.155,2.409A14.23,14.23,0,0,0,27.736,30.045Z" transform="translate(0.725 0.645)"/>
      </g>
    </g>
    <g id="页面1-2" data-name="页面1" transform="translate(214.167 231.323)">
      <g id="编组" transform="translate(0.77 0.28)">
        <path id="路径-8" data-name="路径" d="M0,.06H31.553l-2.9,9.121H20.474V42.456H10.237V9.181H.02Z" transform="translate(0 0.057)"/>
        <path id="路径-9" data-name="路径" d="M42.52.06H74.8L71.9,9.181H63.014V42.456H52.8V9.181H42.54Z" transform="translate(40.707 0.057)"/>
        <path id="路径-10" data-name="路径" d="M17.1,6.95H27.22V35.86H17.178Z" transform="translate(16.371 6.654)"/>
        <path id="路径-11" data-name="路径" d="M24.32,0h10.1V19.75L44.442,9.963H56.5L43.835,22.255,58.026,42.514H46.888L37.415,28.44l-2.995,2.9V42.514H24.32Z" transform="translate(23.283)"/>
        <path id="路径-12" data-name="路径" d="M79.01,0H89.227V19.75l10-9.787h12.057L98.623,22.255l14.093,20.259H101.578L92.124,28.44l-2.9,2.9V42.514H79.108Z" transform="translate(75.641)"/>
        <circle id="椭圆形" cx="5.089" cy="5.089" r="5.089" transform="translate(33.451 0.117)"/>
        <path id="路径-13" data-name="路径" d="M59.255,21.314A17.3,17.3,0,0,1,75.207,4.07H73.7a17.3,17.3,0,0,0,0,34.547h1.507A17.3,17.3,0,0,1,59.255,21.314Z" transform="translate(54.957 3.896)" fill="#25f4ee"/>
        <path id="路径-14" data-name="路径" d="M69.257,4.1H67.73a17.3,17.3,0,0,1,0,34.489h1.527a17.3,17.3,0,1,0,0-34.606Z" transform="translate(64.842 3.81)" fill="#fe2c55"/>
        <path id="形状" d="M75.573,29.76a8.417,8.417,0,1,1,8.417-8.417,8.417,8.417,0,0,1-8.417,8.417Zm0-25.72A17.3,17.3,0,1,0,87.808,9.108,17.3,17.3,0,0,0,75.573,4.04Z" transform="translate(55.785 3.868)"/>
      </g>
    </g>
    <text id="Video_Downloader" data-name="Video Downloader" transform="translate(213 300)" fill="#73f8f4" font-size="20" font-family="SegoeUI-BoldItalic, Segoe UI" font-weight="700" font-style="italic"><tspan x="0" y="0">Video Downloader</tspan></text>
    <text id="Video_Downloader-2" data-name="Video Downloader" transform="translate(212 300)" font-size="20" font-family="SegoeUI-BoldItalic, Segoe UI" font-weight="700" font-style="italic"><tspan x="0" y="0">Video Downloader</tspan></text>
  </g>
</svg>
